<svg xmlns="http://www.w3.org/2000/svg" xmlns:xlink="http://www.w3.org/1999/xlink" width="2512" zoomAndPan="magnify" viewBox="0 0 1884 809.999993" height="1080" preserveAspectRatio="xMidYMid meet" version="1.0"><path fill="#090b0c" d="M 1289.613281 660.046875 C 1276.621094 657.9375 1260.824219 648.226562 1252.75 637.578125 C 1234.027344 612.769531 1234.613281 580.003906 1254.273438 556.484375 C 1264.570312 544.199219 1285.046875 534.953125 1301.78125 534.953125 C 1318.75 534.953125 1338.054688 543.613281 1349.054688 556.367188 C 1371.054688 581.410156 1369.886719 618.855469 1346.246094 642.726562 C 1331.386719 657.703125 1311.726562 663.789062 1289.613281 660.046875 Z M 1316.757812 635.003906 C 1320.152344 633.480469 1325.535156 629.386719 1328.695312 626.109375 C 1348.589844 605.398438 1338.757812 566.664062 1311.84375 559.410156 C 1305.175781 557.539062 1291.367188 558.824219 1285.75 561.632812 C 1274.984375 567.132812 1266.324219 579.890625 1264.804688 592.527344 C 1262.699219 611.367188 1271.125 627.046875 1288.324219 636.058594 C 1294.175781 639.097656 1309.152344 638.515625 1316.757812 635.003906 Z M 1316.757812 635.003906 " fill-opacity="1" fill-rule="nonzero"/><path fill="#090b0c" d="M 1383.691406 598.027344 L 1383.691406 535.890625 L 1417.980469 536.359375 C 1450.390625 536.828125 1452.5 537.0625 1459.167969 539.636719 C 1473.210938 545.136719 1480.699219 556.132812 1481.753906 572.515625 C 1482.570312 585.972656 1478.125 598.496094 1470.167969 605.984375 C 1468.648438 607.386719 1464.199219 609.960938 1460.339844 611.835938 C 1453.667969 614.992188 1452.265625 615.109375 1432.253906 615.695312 L 1411.191406 616.28125 L 1410.839844 638.28125 L 1410.605469 660.160156 L 1383.691406 660.160156 Z M 1445.945312 591.824219 C 1455.308594 587.261719 1458.117188 571.699219 1450.859375 564.089844 C 1446.179688 559.175781 1441.265625 558.125 1425.234375 558.59375 L 1411.191406 558.941406 L 1410.839844 576.964844 L 1410.488281 594.867188 L 1426.054688 594.398438 C 1437.871094 594.046875 1442.667969 593.460938 1445.945312 591.824219 Z M 1445.945312 591.824219 " fill-opacity="1" fill-rule="nonzero"/><path fill="#090b0c" d="M 1500.710938 598.027344 L 1500.710938 535.890625 L 1534.996094 536.359375 C 1566.824219 536.945312 1569.632812 537.179688 1576.183594 539.519531 C 1590.929688 545.136719 1597.832031 554.847656 1598.769531 571.464844 C 1599.9375 591.707031 1593.855469 604.226562 1579.34375 611.25 L 1571.503906 615.109375 L 1549.621094 615.460938 L 1527.625 615.929688 L 1527.625 660.160156 L 1500.710938 660.160156 Z M 1564.015625 591.589844 C 1569.867188 588.195312 1572.324219 582.695312 1571.855469 573.921875 C 1571.035156 560.933594 1566.355469 558.359375 1542.601562 558.359375 L 1527.625 558.359375 L 1527.625 594.984375 L 1543.769531 594.398438 C 1557.109375 594.046875 1560.738281 593.460938 1564.015625 591.589844 Z M 1564.015625 591.589844 " fill-opacity="1" fill-rule="nonzero"/><path fill="#090b0c" d="M 1618.894531 598.144531 L 1618.894531 536.125 L 1660.789062 536.125 C 1683.839844 536.125 1703.03125 536.359375 1703.265625 536.59375 C 1703.5 536.828125 1703.617188 541.859375 1703.382812 547.710938 L 1703.03125 558.359375 L 1674.128906 558.59375 L 1645.222656 558.941406 L 1644.875 572.164062 L 1644.523438 585.273438 L 1697.296875 585.273438 L 1697.296875 611.015625 L 1644.640625 611.015625 L 1644.640625 637.929688 L 1706.660156 637.929688 L 1706.660156 660.160156 L 1618.894531 660.160156 Z M 1618.894531 598.144531 " fill-opacity="1" fill-rule="nonzero"/><path fill="#090b0c" d="M 1731.230469 598.144531 L 1731.230469 536.007812 L 1744.453125 536.359375 L 1757.558594 536.710938 L 1757.558594 659.578125 L 1744.453125 659.929688 L 1731.230469 660.277344 Z M 1731.230469 598.144531 " fill-opacity="1" fill-rule="nonzero"/><path fill="#090b0c" d="M 1780.378906 599.3125 C 1780.378906 565.847656 1780.261719 538.113281 1780.144531 537.644531 C 1779.910156 537.0625 1786.113281 536.59375 1793.835938 536.359375 L 1807.878906 536.125 L 1813.84375 546.890625 C 1817.121094 552.859375 1824.257812 565.378906 1829.527344 574.738281 C 1834.90625 584.101562 1842.980469 598.261719 1847.546875 606.335938 L 1855.855469 620.960938 L 1856.4375 578.835938 L 1857.023438 536.710938 L 1869.078125 536.359375 L 1881.011719 536.007812 L 1881.011719 660.160156 L 1855.386719 660.160156 L 1850.238281 651.152344 C 1813.496094 586.558594 1808.34375 577.664062 1806.355469 575.675781 C 1804.484375 573.804688 1804.367188 576.496094 1804.367188 616.632812 L 1804.367188 659.578125 L 1792.429688 659.929688 L 1780.378906 660.277344 Z M 1780.378906 599.3125 " fill-opacity="1" fill-rule="nonzero"/><path fill="#090b0c" d="M 469.792969 472.117188 C 450.136719 470.128906 437.847656 465.914062 423.808594 456.554688 C 407.660156 445.671875 396.894531 429.523438 392.5625 409.863281 C 388.9375 393.597656 388.351562 394.535156 401.339844 394.535156 L 412.457031 394.535156 L 412.457031 397.8125 C 412.457031 399.683594 413.277344 404.011719 414.328125 407.523438 C 420.296875 427.765625 433.636719 441.339844 454.816406 448.714844 C 461.253906 450.9375 464.644531 451.289062 480.910156 451.289062 C 498.816406 451.289062 499.984375 451.171875 508.410156 447.894531 C 525.496094 441.222656 536.144531 431.746094 542.109375 417.585938 C 544.917969 411.152344 545.269531 408.8125 545.152344 398.046875 C 545.152344 386.929688 544.800781 385.054688 541.527344 378.152344 C 537.429688 369.257812 529.121094 360.484375 520.929688 356.269531 C 514.144531 352.878906 495.65625 346.324219 485.59375 343.75 C 459.144531 337.078125 442.882812 331.578125 430.945312 325.378906 C 421.351562 320.347656 406.839844 305.953125 402.746094 297.410156 C 395.136719 281.613281 393.265625 258.328125 398.296875 243.582031 C 403.679688 227.902344 412.574219 215.5 424.160156 207.425781 C 438.785156 197.128906 451.539062 192.566406 469.328125 191.042969 C 481.847656 189.988281 501.507812 191.277344 509.464844 193.734375 C 531.113281 200.40625 549.71875 214.914062 558.960938 232.46875 C 563.058594 240.425781 568.441406 257.976562 567.152344 259.265625 C 566.800781 259.730469 561.886719 259.964844 556.269531 259.964844 L 546.089844 259.964844 L 545.269531 256.105469 C 543.75 249.667969 539.417969 240.890625 534.269531 234.457031 C 529.589844 228.605469 516.367188 217.839844 513.675781 217.839844 C 513.089844 217.839844 510.984375 217.019531 509.113281 216.085938 C 503.847656 213.394531 488.984375 211.054688 479.742188 211.636719 C 468.976562 212.222656 455.636719 214.210938 454.113281 215.382812 C 453.414062 215.96875 450.957031 217.019531 448.613281 217.722656 C 443.113281 219.476562 431.414062 228.136719 427.550781 233.167969 C 419.011719 244.402344 416.085938 256.921875 418.191406 272.722656 C 420.882812 292.144531 432.699219 305.015625 454.699219 312.625 C 458.796875 314.027344 463.242188 315.664062 464.527344 316.25 C 465.816406 316.835938 468.976562 317.773438 471.550781 318.355469 C 482.902344 321.046875 486.878906 322.21875 488.632812 323.15625 C 489.6875 323.738281 492.613281 324.558594 495.070312 324.910156 C 506.421875 326.898438 531.460938 337.078125 539.535156 343.046875 C 554.75 354.398438 562.238281 365.515625 565.28125 381.3125 C 573.003906 422.152344 554.164062 454.445312 514.261719 468.605469 C 505.015625 471.882812 483.835938 473.636719 469.792969 472.117188 Z M 469.792969 472.117188 " fill-opacity="1" fill-rule="nonzero"/><path fill="#090b0c" d="M 1001.050781 472.117188 C 979.050781 470.011719 965.710938 465.5625 950.265625 455.382812 C 933.296875 444.265625 918.785156 424.023438 912.117188 402.140625 C 907.4375 386.460938 906.851562 382.363281 906.851562 361.769531 C 906.96875 343.046875 907.203125 340.238281 910.246094 329.003906 C 919.371094 295.421875 936.105469 274.710938 965.359375 261.136719 C 980.101562 254.113281 989.816406 252.359375 1012.164062 252.359375 C 1033.347656 252.359375 1042.941406 254.113281 1056.632812 260.199219 C 1067.75 265.230469 1081.90625 275.414062 1089.515625 283.953125 L 1095.832031 290.976562 L 1095.832031 179.226562 L 1118.066406 179.226562 L 1117.832031 324.675781 L 1117.480469 470.011719 L 1106.714844 470.363281 L 1095.832031 470.710938 L 1095.832031 433.851562 L 1088.578125 441.574219 C 1071.375 459.597656 1052.070312 469.191406 1027.730469 471.765625 C 1016.730469 472.9375 1009.589844 473.054688 1001.050781 472.117188 Z M 1034.398438 449.765625 C 1035.6875 449.066406 1039.3125 447.660156 1042.589844 446.722656 C 1054.644531 442.863281 1070.792969 430.925781 1078.398438 420.277344 C 1084.015625 412.4375 1088.578125 403.3125 1091.972656 393.363281 C 1095.128906 383.886719 1095.246094 382.363281 1095.246094 362.355469 C 1095.246094 342.230469 1095.128906 340.824219 1091.855469 331.347656 C 1080.738281 298.582031 1059.675781 279.976562 1026.792969 273.773438 C 1018.835938 272.371094 990.867188 273.1875 988.996094 275.0625 C 988.292969 275.761719 986.421875 276.347656 984.785156 276.347656 C 983.144531 276.347656 977.410156 278.453125 972.027344 281.144531 C 955.179688 289.335938 941.722656 304.316406 935.050781 322.21875 C 926.042969 346.324219 926.511719 382.363281 936.222656 405.183594 C 942.074219 419.109375 954.359375 433.734375 966.296875 440.640625 C 971.914062 444.03125 985.484375 449.179688 992.859375 450.820312 C 998.824219 452.105469 1031.589844 451.40625 1034.398438 449.765625 Z M 1034.398438 449.765625 " fill-opacity="1" fill-rule="nonzero"/><path fill="#090b0c" d="M 1254.976562 471.0625 C 1248.304688 470.128906 1242.21875 468.839844 1241.636719 468.253906 C 1240.933594 467.554688 1239.761719 467.085938 1238.828125 467.085938 C 1235.785156 467.085938 1218.816406 457.957031 1211.796875 452.574219 C 1207.933594 449.648438 1201.964844 443.914062 1198.339844 439.9375 L 1191.785156 432.566406 L 1191.785156 470.59375 L 1170.722656 470.59375 L 1170.722656 179.226562 L 1191.785156 179.226562 L 1191.785156 291.558594 L 1200.914062 282.433594 C 1214.839844 268.390625 1228.878906 259.847656 1244.558594 255.871094 C 1248.65625 254.816406 1253.6875 253.414062 1255.675781 252.828125 C 1260.359375 251.421875 1291.835938 251.421875 1296.398438 252.828125 C 1298.386719 253.53125 1303.769531 254.816406 1308.21875 255.988281 C 1334.664062 262.421875 1356.894531 280.328125 1369.535156 305.367188 C 1378.777344 323.738281 1381.703125 339.539062 1381.117188 367.269531 C 1380.652344 385.640625 1380.183594 389.269531 1377.375 398.628906 C 1375.617188 404.480469 1372.695312 412.4375 1370.820312 416.417969 C 1356.546875 447.308594 1327.40625 467.902344 1292.652344 471.648438 C 1277.675781 473.285156 1270.539062 473.167969 1254.976562 471.0625 Z M 1306.460938 447.542969 C 1333.375 438.183594 1349.289062 420.042969 1357.011719 390.207031 C 1359.238281 381.546875 1359.703125 376.867188 1359.703125 361.769531 C 1359.585938 345.738281 1359.238281 342.34375 1356.546875 332.28125 C 1351.164062 312.972656 1343.207031 300.101562 1330.097656 289.804688 C 1316.527344 279.039062 1301.664062 274.007812 1280.484375 273.1875 C 1259.65625 272.253906 1245.027344 275.996094 1228.996094 286.527344 C 1213.316406 296.824219 1201.265625 314.144531 1195.53125 334.855469 C 1191.316406 350.1875 1191.199219 373.589844 1195.179688 388.683594 C 1202.667969 416.535156 1221.390625 438.066406 1245.847656 446.839844 C 1258.71875 451.40625 1261.175781 451.757812 1279.546875 451.40625 C 1294.878906 451.054688 1297.453125 450.703125 1306.460938 447.542969 Z M 1306.460938 447.542969 " fill-opacity="1" fill-rule="nonzero"/><path fill="#090b0c" d="M 1508.902344 472.117188 C 1476.953125 468.839844 1452.265625 455.148438 1436.351562 431.980469 C 1422.542969 411.851562 1416.339844 390.207031 1416.457031 362.355469 C 1416.574219 328.070312 1426.285156 301.742188 1446.296875 281.496094 C 1459.402344 268.15625 1473.445312 259.964844 1489.59375 255.988281 C 1494.15625 254.816406 1499.65625 253.414062 1501.878906 252.828125 C 1507.847656 251.074219 1539.558594 252.242188 1549.503906 254.464844 C 1566.589844 258.210938 1584.726562 268.742188 1598.183594 282.667969 L 1606.023438 290.859375 L 1606.023438 254.113281 L 1627.085938 254.113281 L 1627.085938 470.59375 L 1606.023438 470.59375 L 1605.789062 451.871094 L 1605.4375 433.148438 L 1601.226562 438.300781 C 1591.515625 450.351562 1574.429688 462.054688 1558.515625 467.554688 C 1546.695312 471.648438 1524.230469 473.753906 1508.902344 472.117188 Z M 1550.675781 447.425781 C 1576.535156 437.949219 1595.375 417.117188 1602.628906 389.855469 C 1606.492188 375.34375 1606.609375 349.132812 1602.628906 334.855469 C 1593.972656 303.027344 1571.035156 280.792969 1540.261719 274.59375 C 1522.472656 270.964844 1498.953125 273.304688 1482.570312 280.445312 C 1465.371094 287.816406 1449.457031 306.890625 1443.371094 327.015625 C 1438.808594 342.695312 1438.105469 347.144531 1438.222656 363.527344 C 1438.339844 377.097656 1438.925781 381.898438 1441.382812 391.140625 C 1449.105469 420.511719 1465.957031 439.117188 1492.167969 447.660156 C 1504.6875 451.757812 1504.921875 451.757812 1524.113281 451.289062 C 1539.558594 450.9375 1541.898438 450.703125 1550.675781 447.425781 Z M 1550.675781 447.425781 " fill-opacity="1" fill-rule="nonzero"/><path fill="#090b0c" d="M 1763.996094 472.117188 C 1738.253906 469.425781 1720.347656 461.585938 1703.617188 445.671875 C 1689.457031 432.332031 1680.679688 417.003906 1674.828125 395.703125 C 1672.488281 386.8125 1672.136719 383.183594 1672.136719 362.355469 C 1672.136719 336.496094 1673.660156 328.070312 1681.148438 310.867188 C 1693.667969 282.199219 1718.945312 261.253906 1749.136719 254.347656 C 1760.484375 251.890625 1793.015625 251.773438 1803.78125 254.230469 C 1821.917969 258.5625 1835.375 266.050781 1850.003906 280.210938 C 1855.738281 285.828125 1860.652344 290.390625 1860.769531 290.390625 C 1861.003906 290.390625 1861.121094 265.347656 1861.121094 234.808594 L 1861.121094 179.226562 L 1882.183594 179.226562 L 1882.183594 470.59375 L 1861.121094 470.59375 L 1861.121094 433.5 L 1850.9375 443.683594 C 1839.824219 454.679688 1828.824219 461.820312 1815.953125 466.617188 C 1803.429688 471.296875 1779.910156 473.753906 1763.996094 472.117188 Z M 1806.003906 447.308594 C 1840.40625 434.554688 1861.121094 402.84375 1861.121094 362.941406 C 1861.121094 317.1875 1835.726562 283.136719 1795.121094 274.476562 C 1783.070312 271.902344 1759.785156 272.722656 1749.371094 276.113281 C 1733.6875 281.261719 1726.199219 285.828125 1715.667969 296.710938 C 1699.285156 313.792969 1690.511719 344.917969 1693.785156 374.757812 C 1694.488281 381.429688 1695.660156 389.269531 1696.359375 392.195312 C 1698.234375 400.152344 1707.007812 417.703125 1712.390625 424.492188 C 1720.230469 434.4375 1733.339844 443.332031 1745.859375 447.191406 C 1748.433594 448.011719 1751.59375 449.066406 1752.878906 449.648438 C 1756.976562 451.40625 1761.890625 451.640625 1779.207031 451.289062 C 1794.886719 450.9375 1796.996094 450.703125 1806.003906 447.308594 Z M 1806.003906 447.308594 " fill-opacity="1" fill-rule="nonzero"/><path fill="#090b0c" d="M 607.875 362.355469 L 607.875 254.113281 L 628.9375 254.113281 L 628.9375 470.59375 L 607.875 470.59375 Z M 607.875 362.355469 " fill-opacity="1" fill-rule="nonzero"/><path fill="#090b0c" d="M 682.765625 470.363281 C 682.765625 470.128906 682.765625 421.566406 682.765625 362.355469 L 682.765625 254.699219 L 704.0625 254.699219 L 703.945312 268.039062 L 703.710938 281.378906 L 712.488281 273.1875 C 731.792969 255.050781 754.847656 248.265625 787.726562 250.722656 C 820.140625 253.179688 846.003906 272.136719 857.820312 302.441406 C 863.554688 316.835938 864.140625 326.664062 864.140625 401.554688 L 864.140625 470.59375 L 843.195312 470.59375 L 842.84375 397.226562 L 842.375 323.738281 L 839.332031 314.730469 C 835.589844 303.613281 831.375 296.242188 824.472656 288.867188 C 804.8125 267.804688 762.921875 264.296875 736.242188 281.378906 C 718.570312 292.847656 707.6875 312.742188 704.996094 338.601562 C 704.414062 344.570312 703.828125 376.75 703.828125 410.097656 L 703.828125 470.59375 L 693.296875 470.59375 C 687.5625 470.59375 682.765625 470.476562 682.765625 470.363281 Z M 682.765625 470.363281 " fill-opacity="1" fill-rule="nonzero"/><path fill="#090b0c" d="M 608.808594 213.746094 C 600.851562 208.363281 598.980469 195.257812 605.183594 188.351562 C 607.757812 185.542969 615.128906 181.566406 617.9375 181.566406 C 621.917969 181.566406 630.339844 186.597656 632.566406 190.222656 C 635.488281 195.023438 635.488281 204.382812 632.566406 208.828125 C 627.300781 216.785156 616.652344 219.011719 608.808594 213.746094 Z M 608.808594 213.746094 " fill-opacity="1" fill-rule="nonzero"/><path fill="#1e8fa0" d="M 2.429688 462.636719 C 0.675781 462.289062 0.558594 460.882812 0.792969 451.171875 L 1.144531 440.171875 L 122.839844 440.171875 C 189.773438 440.171875 247.699219 440.640625 251.558594 441.222656 C 255.421875 441.808594 263.378906 443.914062 269.113281 446.023438 C 283.503906 451.054688 286.078125 451.757812 293.917969 452.808594 L 300.707031 453.628906 L 301.410156 462.988281 L 152.914062 462.988281 C 71.238281 462.988281 3.601562 462.871094 2.429688 462.636719 Z M 2.429688 462.636719 " fill-opacity="1" fill-rule="nonzero"/><path fill="#1e8fa0" d="M 268.996094 422.734375 C 265.132812 421.566406 259.75 419.578125 257.058594 418.171875 C 254.367188 416.769531 246.878906 414.660156 240.324219 413.257812 C 228.859375 411.035156 224.410156 410.917969 114.53125 410.917969 L 0.558594 410.917969 L 0.558594 389.855469 L 89.492188 389.855469 C 188.605469 389.855469 181.117188 389.269531 207.09375 398.28125 C 220.433594 402.84375 231.667969 403.777344 271.21875 403.894531 L 301.292969 403.894531 L 301.292969 424.960938 L 288.769531 424.84375 C 280.8125 424.726562 273.558594 424.023438 268.996094 422.734375 Z M 268.996094 422.734375 " fill-opacity="1" fill-rule="nonzero"/><path fill="#1e8fa0" d="M 207.679688 366.332031 C 202.878906 364.34375 197.03125 361.886719 194.804688 360.835938 C 191.0625 359.078125 181.582031 358.84375 98.269531 358.609375 C 47.484375 358.375 4.65625 358.027344 3.25 357.675781 C 0.675781 357.089844 0.558594 356.503906 0.558594 346.441406 L 0.558594 335.910156 L 64.683594 336.378906 C 126.351562 336.730469 129.042969 336.847656 136.882812 339.304688 C 152.679688 344.21875 167.542969 347.609375 177.839844 348.898438 C 183.808594 349.484375 213.0625 350.070312 244.539062 350.070312 L 300.707031 349.953125 L 301.058594 360.015625 L 301.410156 369.960938 L 258.929688 369.960938 L 216.453125 369.84375 Z M 207.679688 366.332031 " fill-opacity="1" fill-rule="nonzero"/><path fill="#1e8fa0" d="M 172.457031 316.71875 C 172.105469 316.484375 167.777344 315.433594 162.976562 314.496094 C 158.0625 313.558594 152.5625 312.039062 150.691406 310.984375 C 148.820312 310.050781 141.796875 307.941406 135.128906 306.304688 L 122.839844 303.261719 L 0.558594 303.261719 L 0.558594 281.027344 L 31.917969 281.027344 C 67.140625 281.027344 74.980469 281.847656 89.375 286.996094 C 113.714844 295.539062 105.523438 295.070312 208.613281 295.070312 L 301.292969 295.070312 L 301.292969 317.304688 L 237.167969 317.304688 C 201.828125 317.304688 172.691406 317.070312 172.457031 316.71875 Z M 172.457031 316.71875 " fill-opacity="1" fill-rule="nonzero"/><path fill="#1e8fa0" d="M 204.753906 262.304688 L 109.96875 261.722656 L 97.097656 257.15625 C 90.078125 254.699219 82.355469 252.125 80.128906 251.539062 C 77.90625 250.839844 60.589844 250.019531 41.75 249.550781 L 7.347656 248.847656 L 18.230469 240.191406 C 30.046875 230.710938 31.453125 230.242188 39.175781 234.222656 C 51.226562 240.425781 50.875 240.425781 172.105469 240.542969 L 284.558594 240.660156 L 292.867188 247.5625 C 300.238281 253.53125 301.292969 254.816406 301.292969 258.328125 C 301.292969 260.433594 300.941406 262.304688 300.472656 262.539062 C 299.886719 262.773438 256.941406 262.65625 204.753906 262.304688 Z M 204.753906 262.304688 " fill-opacity="1" fill-rule="nonzero"/><path fill="#1e8fa0" d="M 61.523438 206.488281 C 61.523438 205.90625 66.789062 201.457031 73.226562 196.542969 L 84.8125 187.414062 L 217.859375 187.414062 L 228.859375 196.308594 C 234.941406 201.222656 240.324219 205.671875 241.027344 206.253906 C 241.613281 206.839844 205.6875 207.308594 151.746094 207.308594 C 102.011719 207.308594 61.40625 206.957031 61.523438 206.488281 Z M 61.523438 206.488281 " fill-opacity="1" fill-rule="nonzero"/><path fill="#1e8fa0" d="M 124.597656 156.40625 C 124.597656 156.171875 129.746094 151.84375 136.0625 146.929688 C 142.265625 142.011719 148.234375 137.214844 149.285156 136.398438 C 150.808594 134.992188 152.09375 135.460938 158.0625 140.140625 C 161.808594 143.066406 168.007812 147.746094 171.636719 150.554688 C 176.667969 154.300781 177.839844 155.820312 176.550781 156.289062 C 174.445312 157.109375 124.597656 157.226562 124.597656 156.40625 Z M 124.597656 156.40625 " fill-opacity="1" fill-rule="nonzero"/><path fill="#d4824c" d="M 1190.617188 678.882812 L 1175.988281 678.300781 L 1175.636719 597.207031 L 1175.402344 516.230469 L 1276.273438 516.464844 L 1377.257812 516.816406 L 1377.257812 523.839844 L 1183.011719 523.839844 L 1182.660156 596.855469 C 1182.542969 647.171875 1182.777344 670.34375 1183.59375 671.160156 C 1184.53125 672.097656 1214.957031 672.449219 1281.070312 672.449219 L 1377.257812 672.449219 L 1377.609375 675.726562 L 1377.960938 678.882812 L 1345.429688 678.882812 C 1327.523438 679 1288.675781 679.117188 1259.070312 679.234375 C 1229.464844 679.351562 1198.691406 679.234375 1190.617188 678.882812 Z M 1190.617188 678.882812 " fill-opacity="1" fill-rule="nonzero"/></svg>